<svg width="24" height="24" viewBox="0 0 940.5 940.499971" xmlns="http://www.w3.org/2000/svg" fill="currentColor">
  <path fill-rule="evenodd" d="M 458.542969 2.699219 C 451.84375 4.296875 434.3125 13.75 398.316406 35.183594 C 383.367188 44.082031 351.417969 63.019531 327.308594 77.269531 C 303.203125 91.519531 266.121094 113.585938 244.90625 126.304688 C 223.695312 139.023438 181.992188 163.964844 152.234375 181.734375 C 122.476562 199.503906 94.761719 216.984375 90.640625 220.582031 C 86.523438 224.179688 81.285156 230.882812 79 235.484375 L 74.847656 243.847656 L 74.339844 470.886719 C 73.960938 640.511719 74.355469 699.820312 75.890625 705.410156 C 79.667969 719.144531 86.292969 727.070312 101.304688 735.800781 C 118.40625 745.746094 203.515625 793.863281 227.375 807.078125 C 248.539062 818.796875 406.636719 909.027344 429.386719 922.375 C 449.414062 934.121094 462.054688 938.042969 475.402344 936.648438 C 489.078125 935.21875 494.070312 932.847656 536.828125 907.457031 C 584.792969 878.972656 601.996094 869.015625 691.980469 817.632812 C 732.476562 794.503906 781.394531 766.496094 800.679688 755.382812 C 819.964844 744.273438 838.988281 733.339844 842.953125 731.089844 C 852.261719 725.800781 859.988281 716.921875 863.632812 707.316406 C 866.261719 700.390625 866.484375 685.457031 866.039062 546.277344 L 865.546875 392.871094 L 861.707031 385.691406 C 851.195312 366.046875 824.625 354.265625 805.703125 360.863281 C 801.714844 362.253906 789.09375 368.945312 777.652344 375.730469 C 766.210938 382.519531 736.730469 399.714844 712.140625 413.949219 C 646.433594 451.980469 562.175781 501.757812 548.933594 510.367188 C 541.15625 515.425781 536.410156 519.929688 534.402344 524.15625 C 530.421875 532.550781 529.191406 569.082031 531.03125 624.292969 C 532.371094 664.492188 532.589844 666.394531 535.941406 666.871094 C 537.871094 667.148438 549.703125 661.34375 562.242188 653.976562 C 594.375 635.097656 674.53125 588.414062 707.542969 569.355469 C 722.855469 560.519531 736.410156 553.289062 737.667969 553.289062 C 741.808594 553.289062 742.386719 560.488281 741.089844 596.101562 C 739.476562 640.53125 738.519531 642.902344 717.445312 654.5625 C 705.707031 661.058594 575.273438 737.433594 533.855469 762.0625 C 473.382812 798.027344 473.773438 797.949219 441.363281 780.066406 C 429.742188 773.652344 405.195312 759.542969 386.820312 748.714844 C 353.324219 728.972656 305.835938 702.007812 250.167969 671.121094 C 213.148438 650.582031 211.847656 649.648438 207.363281 640.382812 C 203.742188 632.898438 203.707031 631.40625 203.707031 475.269531 C 203.707031 317.71875 203.707031 317.710938 207.46875 309.9375 C 211.980469 300.625 222.054688 293.703125 275.589844 263.140625 C 295.355469 251.855469 330.859375 230.988281 354.484375 216.765625 C 440.777344 164.816406 463.003906 151.988281 469.914062 150.125 C 479.867188 147.445312 490.683594 150.273438 507.785156 160.027344 C 521.574219 167.859375 535.382812 175.65625 549.210938 183.421875 C 564.222656 191.855469 584.339844 203.28125 593.917969 208.8125 C 603.496094 214.34375 627.109375 227.75 646.394531 238.597656 C 665.679688 249.445312 689.382812 263.019531 699.070312 268.757812 C 737.792969 291.703125 739.417969 291.179688 789.523438 239.675781 C 808.867188 219.792969 825.519531 201.769531 826.53125 199.628906 C 829.09375 194.199219 827.253906 192.453125 805.738281 179.902344 C 787.839844 169.457031 784.734375 167.6875 768.242188 158.507812 C 763.90625 156.089844 749.308594 147.796875 735.808594 140.078125 C 722.308594 132.355469 695.878906 117.320312 677.078125 106.667969 C 658.273438 96.011719 633.027344 81.566406 620.972656 74.5625 C 567.277344 43.359375 498.460938 5.566406 491.394531 3.398438 C 483.152344 0.867188 467.609375 0.539062 458.542969 2.699219 M 490.285156 290.945312 C 475.835938 297.425781 375.539062 357.007812 368.070312 363.550781 C 366.386719 365.027344 365.003906 367.289062 365.003906 368.574219 C 365.003906 371.410156 368.148438 373.414062 424.585938 406.582031 C 480.21875 439.273438 493.597656 446.34375 499.855469 446.34375 C 503.039062 446.34375 517.203125 438.949219 539.65625 425.570312 C 558.828125 414.144531 582.402344 400.226562 592.046875 394.644531 C 600.964844 389.480469 609.878906 384.300781 618.78125 379.109375 C 628.253906 373.5625 630.660156 370.128906 628.679688 364.976562 C 628.054688 363.347656 606.539062 349.535156 580.867188 334.285156 C 500.402344 286.480469 500.324219 286.445312 490.285156 290.945312 M 324.097656 415.953125 C 323.453125 416.597656 322.953125 451.902344 322.988281 494.410156 C 323.035156 551.683594 323.601562 572.679688 325.179688 575.496094 C 328.203125 580.886719 333.570312 584.675781 354.484375 596.179688 C 364.609375 601.753906 383.542969 612.824219 396.5625 620.785156 C 438.429688 646.394531 462.554688 660.234375 465.316406 660.234375 C 471.855469 660.234375 472.070312 657.40625 471.5625 577.828125 L 471.074219 500.289062 L 463.769531 493.917969 C 457.480469 488.425781 410.714844 460.410156 348.511719 424.867188 C 331.601562 415.203125 326.652344 413.394531 324.09375 415.953125 "/>
</svg>
